<svg xmlns="http://www.w3.org/2000/svg" width="21.9" height="21.634" viewBox="0 0 21.9 21.634">
  <g id="home" transform="translate(0 -3.11)">
    <g id="Group_156" data-name="Group 156" transform="translate(11.406 14.782)">
      <g id="Group_155" data-name="Group 155">
        <path id="Path_229" data-name="Path 229" d="M273.1,275.974h-6.124a.325.325,0,0,0-.325.325v5.378a.325.325,0,0,0,.325.325H273.1a.325.325,0,0,0,.325-.325V276.3A.325.325,0,0,0,273.1,275.974Zm-.325,5.377H267.3v-3.093h5.473Zm0-3.743H267.3v-.984h5.473Z" transform="translate(-266.649 -275.974)" fill="#5f27cd"/>
      </g>
    </g>
    <g id="Group_158" data-name="Group 158" transform="translate(0 3.11)">
      <g id="Group_157" data-name="Group 157">
        <path id="Path_230" data-name="Path 230" d="M21.575,21.489H19.429V14.268l.58.553a.325.325,0,0,0,.434.014l1.291-1.084a.34.34,0,0,0,.1-.135.326.326,0,0,0-.078-.356l-2.24-2.133V8.049a.325.325,0,0,0-.651,0v2.459L15.439,7.246V5.631h3.426v.9a.325.325,0,0,0,.651,0V5.306a.325.325,0,0,0-.325-.325H15.114a.325.325,0,0,0-.325.325v1.32L11.819,3.8l-.647-.6a.325.325,0,0,0-.443,0l-.65.6L.145,13.261a.326.326,0,0,0-.078.356.341.341,0,0,0,.1.135l1.291,1.084a.325.325,0,0,0,.434-.014l.58-.554V16.4a.325.325,0,0,0,.651,0v-2.75L10.95,6.174l7.828,7.474v7.842H11.731a.325.325,0,0,0-.325.325v2.279h-.911V15.107a.325.325,0,0,0-.325-.325H4.792a.325.325,0,0,0-.325.325v8.987H4.1V21.815a.325.325,0,0,0-.325-.325H3.123V17.915a.325.325,0,0,0-.651,0v3.575H.325A.325.325,0,0,0,0,21.815v2.6a.325.325,0,0,0,.325.325h21.25a.325.325,0,0,0,.325-.325v-2.6A.325.325,0,0,0,21.575,21.489Zm-18.124,2.6H.651V22.14h2.8Zm6.394,0H5.117V15.432H9.844Zm1.33-18.605a.325.325,0,0,0-.449,0L1.653,14.15l-.8-.669,9.667-9.207.426-.4.423.393,9.67,9.209-.8.669ZM21.25,24.094H12.056V22.14H21.25v1.954Z" transform="translate(0 -3.11)" fill="#5f27cd"/>
      </g>
    </g>
    <g id="Group_160" data-name="Group 160" transform="translate(8.004 19.408)">
      <g id="Group_159" data-name="Group 159">
        <path id="Path_231" data-name="Path 231" d="M188.233,384.129h-.781a.325.325,0,0,0,0,.651h.781a.325.325,0,0,0,0-.651Z" transform="translate(-187.127 -384.129)" fill="#5f27cd"/>
      </g>
    </g>
    <g id="Group_162" data-name="Group 162" transform="translate(9.129 9.13)">
      <g id="Group_161" data-name="Group 161">
        <path id="Path_232" data-name="Path 232" d="M215.244,143.856a1.821,1.821,0,1,0,1.821,1.821A1.823,1.823,0,0,0,215.244,143.856Zm0,2.992a1.171,1.171,0,1,1,1.171-1.171A1.172,1.172,0,0,1,215.244,146.848Z" transform="translate(-213.423 -143.856)" fill="#5f27cd"/>
      </g>
    </g>
  </g>
</svg>
